<svg xmlns="http://www.w3.org/2000/svg" viewBox="0 0 200 200" width="200" height="200">
  <defs>
    <linearGradient id="octoGradient" x1="0%" y1="0%" x2="100%" y2="100%">
      <stop offset="0%" style="stop-color:#6366f1;stop-opacity:1" />
      <stop offset="100%" style="stop-color:#8b5cf6;stop-opacity:1" />
    </linearGradient>
  </defs>
  
  <!-- Background circle -->
  <circle cx="100" cy="100" r="90" fill="url(#octoGradient)"/>
  
  <!-- Octopus body -->
  <ellipse cx="100" cy="80" rx="35" ry="30" fill="white"/>
  
  <!-- Eyes -->
  <circle cx="88" cy="75" r="5" fill="#1f2937"/>
  <circle cx="112" cy="75" r="5" fill="#1f2937"/>
  <circle cx="90" cy="73" r="2" fill="white"/>
  <circle cx="114" cy="73" r="2" fill="white"/>
  
  <!-- Tentacles -->
  <path d="M 65 95 Q 40 120 50 150 Q 55 160 60 155 Q 65 150 60 130 Q 55 110 70 100" fill="white" opacity="0.9"/>
  <path d="M 80 100 Q 60 130 70 160 Q 75 170 80 165 Q 85 160 80 140 Q 75 120 85 105" fill="white" opacity="0.9"/>
  <path d="M 100 105 Q 90 140 95 170 Q 100 180 105 175 Q 110 170 105 150 Q 100 130 105 110" fill="white" opacity="0.9"/>
  <path d="M 120 100 Q 140 130 130 160 Q 125 170 120 165 Q 115 160 120 140 Q 125 120 115 105" fill="white" opacity="0.9"/>
  <path d="M 135 95 Q 160 120 150 150 Q 145 160 140 155 Q 135 150 140 130 Q 145 110 130 100" fill="white" opacity="0.9"/>
  
  <!-- Text -->
  <text x="100" y="190" text-anchor="middle" font-family="Arial, sans-serif" font-size="16" font-weight="bold" fill="#1f2937">Octo-POA</text>
</svg>
